<svg version="1.1" xmlns="http://www.w3.org/2000/svg" xmlns:xlink="http://www.w3.org/1999/xlink" width="400" height="400" viewBox="0 0 400 400"><defs/><g><rect fill="rgb(255,255,255)" stroke="none" x="0" y="0" width="400" height="400" transform="matrix(1 0 0 1 0 0)" fill-opacity="1"/><path fill="none" stroke="rgb(255,0,0)" paint-order="fill stroke markers" d=" M 0 200 L 10 0" stroke-opacity="1" stroke-linecap="round" stroke-miterlimit="10" stroke-width="2" stroke-dasharray=""/><path fill="none" stroke="rgb(255,0,0)" paint-order="fill stroke markers" d=" M 400 200 L 10 0" stroke-opacity="1" stroke-linecap="round" stroke-miterlimit="10" stroke-width="2" stroke-dasharray=""/><path fill="none" stroke="rgb(255,0,0)" paint-order="fill stroke markers" d=" M 400 200 L 210 200" stroke-opacity="1" stroke-linecap="round" stroke-miterlimit="10" stroke-width="2" stroke-dasharray=""/><path fill="none" stroke="rgb(255,0,0)" paint-order="fill stroke markers" d=" M 0 190 L 20 0" stroke-opacity="1" stroke-linecap="round" stroke-miterlimit="10" stroke-width="1.9" stroke-dasharray=""/><path fill="none" stroke="rgb(255,0,0)" paint-order="fill stroke markers" d=" M 400 210 L 20 0" stroke-opacity="1" stroke-linecap="round" stroke-miterlimit="10" stroke-width="1.9" stroke-dasharray=""/><path fill="none" stroke="rgb(255,0,0)" paint-order="fill stroke markers" d=" M 400 210 L 220 210" stroke-opacity="1" stroke-linecap="round" stroke-miterlimit="10" stroke-width="1.9" stroke-dasharray=""/><path fill="none" stroke="rgb(255,0,0)" paint-order="fill stroke markers" d=" M 0 180 L 30 0" stroke-opacity="1" stroke-linecap="round" stroke-miterlimit="10" stroke-width="1.8" stroke-dasharray=""/><path fill="none" stroke="rgb(255,0,0)" paint-order="fill stroke markers" d=" M 400 220 L 30 0" stroke-opacity="1" stroke-linecap="round" stroke-miterlimit="10" stroke-width="1.8" stroke-dasharray=""/><path fill="none" stroke="rgb(255,0,0)" paint-order="fill stroke markers" d=" M 400 220 L 230 220" stroke-opacity="1" stroke-linecap="round" stroke-miterlimit="10" stroke-width="1.8" stroke-dasharray=""/><path fill="none" stroke="rgb(255,0,0)" paint-order="fill stroke markers" d=" M 0 170 L 40 0" stroke-opacity="1" stroke-linecap="round" stroke-miterlimit="10" stroke-width="1.7" stroke-dasharray=""/><path fill="none" stroke="rgb(255,0,0)" paint-order="fill stroke markers" d=" M 400 230 L 40 0" stroke-opacity="1" stroke-linecap="round" stroke-miterlimit="10" stroke-width="1.7" stroke-dasharray=""/><path fill="none" stroke="rgb(255,0,0)" paint-order="fill stroke markers" d=" M 400 230 L 240 230" stroke-opacity="1" stroke-linecap="round" stroke-miterlimit="10" stroke-width="1.7" stroke-dasharray=""/><path fill="none" stroke="rgb(255,0,0)" paint-order="fill stroke markers" d=" M 0 160 L 50 0" stroke-opacity="1" stroke-linecap="round" stroke-miterlimit="10" stroke-width="1.6" stroke-dasharray=""/><path fill="none" stroke="rgb(255,0,0)" paint-order="fill stroke markers" d=" M 400 240 L 50 0" stroke-opacity="1" stroke-linecap="round" stroke-miterlimit="10" stroke-width="1.6" stroke-dasharray=""/><path fill="none" stroke="rgb(255,0,0)" paint-order="fill stroke markers" d=" M 400 240 L 250 240" stroke-opacity="1" stroke-linecap="round" stroke-miterlimit="10" stroke-width="1.6" stroke-dasharray=""/><path fill="none" stroke="rgb(255,0,0)" paint-order="fill stroke markers" d=" M 0 150 L 60 0" stroke-opacity="1" stroke-linecap="round" stroke-miterlimit="10" stroke-width="1.5" stroke-dasharray=""/><path fill="none" stroke="rgb(255,0,0)" paint-order="fill stroke markers" d=" M 400 250 L 60 0" stroke-opacity="1" stroke-linecap="round" stroke-miterlimit="10" stroke-width="1.5" stroke-dasharray=""/><path fill="none" stroke="rgb(255,0,0)" paint-order="fill stroke markers" d=" M 400 250 L 260 250" stroke-opacity="1" stroke-linecap="round" stroke-miterlimit="10" stroke-width="1.5" stroke-dasharray=""/><path fill="none" stroke="rgb(255,0,0)" paint-order="fill stroke markers" d=" M 0 140 L 70 0" stroke-opacity="1" stroke-linecap="round" stroke-miterlimit="10" stroke-width="1.4" stroke-dasharray=""/><path fill="none" stroke="rgb(255,0,0)" paint-order="fill stroke markers" d=" M 400 260 L 70 0" stroke-opacity="1" stroke-linecap="round" stroke-miterlimit="10" stroke-width="1.4" stroke-dasharray=""/><path fill="none" stroke="rgb(255,0,0)" paint-order="fill stroke markers" d=" M 400 260 L 270 260" stroke-opacity="1" stroke-linecap="round" stroke-miterlimit="10" stroke-width="1.4" stroke-dasharray=""/><path fill="none" stroke="rgb(255,0,0)" paint-order="fill stroke markers" d=" M 0 130 L 80 0" stroke-opacity="1" stroke-linecap="round" stroke-miterlimit="10" stroke-width="1.2999999999999998" stroke-dasharray=""/><path fill="none" stroke="rgb(255,0,0)" paint-order="fill stroke markers" d=" M 400 270 L 80 0" stroke-opacity="1" stroke-linecap="round" stroke-miterlimit="10" stroke-width="1.2999999999999998" stroke-dasharray=""/><path fill="none" stroke="rgb(255,0,0)" paint-order="fill stroke markers" d=" M 400 270 L 280 270" stroke-opacity="1" stroke-linecap="round" stroke-miterlimit="10" stroke-width="1.2999999999999998" stroke-dasharray=""/><path fill="none" stroke="rgb(255,0,0)" paint-order="fill stroke markers" d=" M 0 120 L 90 0" stroke-opacity="1" stroke-linecap="round" stroke-miterlimit="10" stroke-width="1.2" stroke-dasharray=""/><path fill="none" stroke="rgb(255,0,0)" paint-order="fill stroke markers" d=" M 400 280 L 90 0" stroke-opacity="1" stroke-linecap="round" stroke-miterlimit="10" stroke-width="1.2" stroke-dasharray=""/><path fill="none" stroke="rgb(255,0,0)" paint-order="fill stroke markers" d=" M 400 280 L 290 280" stroke-opacity="1" stroke-linecap="round" stroke-miterlimit="10" stroke-width="1.2" stroke-dasharray=""/><path fill="none" stroke="rgb(255,0,0)" paint-order="fill stroke markers" d=" M 0 110 L 100 0" stroke-opacity="1" stroke-linecap="round" stroke-miterlimit="10" stroke-width="1.1" stroke-dasharray=""/><path fill="none" stroke="rgb(255,0,0)" paint-order="fill stroke markers" d=" M 400 290 L 100 0" stroke-opacity="1" stroke-linecap="round" stroke-miterlimit="10" stroke-width="1.1" stroke-dasharray=""/><path fill="none" stroke="rgb(255,0,0)" paint-order="fill stroke markers" d=" M 400 290 L 300 290" stroke-opacity="1" stroke-linecap="round" stroke-miterlimit="10" stroke-width="1.1" stroke-dasharray=""/><path fill="none" stroke="rgb(255,0,0)" paint-order="fill stroke markers" d=" M 0 100 L 110 0" stroke-opacity="1" stroke-linecap="round" stroke-miterlimit="10" stroke-dasharray=""/><path fill="none" stroke="rgb(255,0,0)" paint-order="fill stroke markers" d=" M 400 300 L 110 0" stroke-opacity="1" stroke-linecap="round" stroke-miterlimit="10" stroke-dasharray=""/><path fill="none" stroke="rgb(255,0,0)" paint-order="fill stroke markers" d=" M 400 300 L 310 300" stroke-opacity="1" stroke-linecap="round" stroke-miterlimit="10" stroke-dasharray=""/><path fill="none" stroke="rgb(255,0,0)" paint-order="fill stroke markers" d=" M 0 90 L 120 0" stroke-opacity="1" stroke-linecap="round" stroke-miterlimit="10" stroke-width="0.8999999999999999" stroke-dasharray=""/><path fill="none" stroke="rgb(255,0,0)" paint-order="fill stroke markers" d=" M 400 310 L 120 0" stroke-opacity="1" stroke-linecap="round" stroke-miterlimit="10" stroke-width="0.8999999999999999" stroke-dasharray=""/><path fill="none" stroke="rgb(255,0,0)" paint-order="fill stroke markers" d=" M 400 310 L 320 310" stroke-opacity="1" stroke-linecap="round" stroke-miterlimit="10" stroke-width="0.8999999999999999" stroke-dasharray=""/><path fill="none" stroke="rgb(255,0,0)" paint-order="fill stroke markers" d=" M 0 80 L 130 0" stroke-opacity="1" stroke-linecap="round" stroke-miterlimit="10" stroke-width="0.7999999999999998" stroke-dasharray=""/><path fill="none" stroke="rgb(255,0,0)" paint-order="fill stroke markers" d=" M 400 320 L 130 0" stroke-opacity="1" stroke-linecap="round" stroke-miterlimit="10" stroke-width="0.7999999999999998" stroke-dasharray=""/><path fill="none" stroke="rgb(255,0,0)" paint-order="fill stroke markers" d=" M 400 320 L 330 320" stroke-opacity="1" stroke-linecap="round" stroke-miterlimit="10" stroke-width="0.7999999999999998" stroke-dasharray=""/><path fill="none" stroke="rgb(255,0,0)" paint-order="fill stroke markers" d=" M 0 70 L 140 0" stroke-opacity="1" stroke-linecap="round" stroke-miterlimit="10" stroke-width="0.7" stroke-dasharray=""/><path fill="none" stroke="rgb(255,0,0)" paint-order="fill stroke markers" d=" M 400 330 L 140 0" stroke-opacity="1" stroke-linecap="round" stroke-miterlimit="10" stroke-width="0.7" stroke-dasharray=""/><path fill="none" stroke="rgb(255,0,0)" paint-order="fill stroke markers" d=" M 400 330 L 340 330" stroke-opacity="1" stroke-linecap="round" stroke-miterlimit="10" stroke-width="0.7" stroke-dasharray=""/><path fill="none" stroke="rgb(255,0,0)" paint-order="fill stroke markers" d=" M 0 60 L 150 0" stroke-opacity="1" stroke-linecap="round" stroke-miterlimit="10" stroke-width="0.5999999999999999" stroke-dasharray=""/><path fill="none" stroke="rgb(255,0,0)" paint-order="fill stroke markers" d=" M 400 340 L 150 0" stroke-opacity="1" stroke-linecap="round" stroke-miterlimit="10" stroke-width="0.5999999999999999" stroke-dasharray=""/><path fill="none" stroke="rgb(255,0,0)" paint-order="fill stroke markers" d=" M 400 340 L 350 340" stroke-opacity="1" stroke-linecap="round" stroke-miterlimit="10" stroke-width="0.5999999999999999" stroke-dasharray=""/><path fill="none" stroke="rgb(255,0,0)" paint-order="fill stroke markers" d=" M 0 50 L 160 0" stroke-opacity="1" stroke-linecap="round" stroke-miterlimit="10" stroke-width="0.5" stroke-dasharray=""/><path fill="none" stroke="rgb(255,0,0)" paint-order="fill stroke markers" d=" M 400 350 L 160 0" stroke-opacity="1" stroke-linecap="round" stroke-miterlimit="10" stroke-width="0.5" stroke-dasharray=""/><path fill="none" stroke="rgb(255,0,0)" paint-order="fill stroke markers" d=" M 400 350 L 360 350" stroke-opacity="1" stroke-linecap="round" stroke-miterlimit="10" stroke-width="0.5" stroke-dasharray=""/><path fill="none" stroke="rgb(255,0,0)" paint-order="fill stroke markers" d=" M 0 40 L 170 0" stroke-opacity="1" stroke-linecap="round" stroke-miterlimit="10" stroke-width="0.3999999999999999" stroke-dasharray=""/><path fill="none" stroke="rgb(255,0,0)" paint-order="fill stroke markers" d=" M 400 360 L 170 0" stroke-opacity="1" stroke-linecap="round" stroke-miterlimit="10" stroke-width="0.3999999999999999" stroke-dasharray=""/><path fill="none" stroke="rgb(255,0,0)" paint-order="fill stroke markers" d=" M 400 360 L 370 360" stroke-opacity="1" stroke-linecap="round" stroke-miterlimit="10" stroke-width="0.3999999999999999" stroke-dasharray=""/><path fill="none" stroke="rgb(255,0,0)" paint-order="fill stroke markers" d=" M 0 30 L 180 0" stroke-opacity="1" stroke-linecap="round" stroke-miterlimit="10" stroke-width="0.2999999999999998" stroke-dasharray=""/><path fill="none" stroke="rgb(255,0,0)" paint-order="fill stroke markers" d=" M 400 370 L 180 0" stroke-opacity="1" stroke-linecap="round" stroke-miterlimit="10" stroke-width="0.2999999999999998" stroke-dasharray=""/><path fill="none" stroke="rgb(255,0,0)" paint-order="fill stroke markers" d=" M 400 370 L 380 370" stroke-opacity="1" stroke-linecap="round" stroke-miterlimit="10" stroke-width="0.2999999999999998" stroke-dasharray=""/><path fill="none" stroke="rgb(255,0,0)" paint-order="fill stroke markers" d=" M 0 20 L 190 0" stroke-opacity="1" stroke-linecap="round" stroke-miterlimit="10" stroke-width="0.19999999999999996" stroke-dasharray=""/><path fill="none" stroke="rgb(255,0,0)" paint-order="fill stroke markers" d=" M 400 380 L 190 0" stroke-opacity="1" stroke-linecap="round" stroke-miterlimit="10" stroke-width="0.19999999999999996" stroke-dasharray=""/><path fill="none" stroke="rgb(255,0,0)" paint-order="fill stroke markers" d=" M 400 380 L 390 380" stroke-opacity="1" stroke-linecap="round" stroke-miterlimit="10" stroke-width="0.19999999999999996" stroke-dasharray=""/><path fill="none" stroke="rgb(255,0,0)" paint-order="fill stroke markers" d=" M 0 10 L 200 0" stroke-opacity="1" stroke-linecap="round" stroke-miterlimit="10" stroke-width="0.09999999999999987" stroke-dasharray=""/><path fill="none" stroke="rgb(255,0,0)" paint-order="fill stroke markers" d=" M 400 390 L 200 0" stroke-opacity="1" stroke-linecap="round" stroke-miterlimit="10" stroke-width="0.09999999999999987" stroke-dasharray=""/><path fill="none" stroke="rgb(255,0,0)" paint-order="fill stroke markers" d=" M 400 390 L 400 390" stroke-opacity="1" stroke-linecap="round" stroke-miterlimit="10" stroke-width="0.09999999999999987" stroke-dasharray=""/><path fill="none" stroke="rgb(255,0,0)" paint-order="fill stroke markers" d=" M 0 0 L 210 0" stroke-opacity="1" stroke-linecap="round" stroke-miterlimit="10" stroke-width="0.0001" stroke-dasharray=""/><path fill="none" stroke="rgb(255,0,0)" paint-order="fill stroke markers" d=" M 400 400 L 210 0" stroke-opacity="1" stroke-linecap="round" stroke-miterlimit="10" stroke-width="0.0001" stroke-dasharray=""/><path fill="none" stroke="rgb(255,0,0)" paint-order="fill stroke markers" d=" M 400 400 L 410 400" stroke-opacity="1" stroke-linecap="round" stroke-miterlimit="10" stroke-width="0.0001" stroke-dasharray=""/><path fill="none" stroke="rgb(0,0,0)" paint-order="fill stroke markers" d=" M 103.535534 203.535534 C 101.5829125 205.4881555 98.4170875 205.4881555 96.464466 203.535534 C 95.526784 202.597852 95 201.3260825 95 200" stroke-opacity="1" stroke-linecap="round" stroke-miterlimit="10" stroke-width="0.1" stroke-dasharray=""/><path fill="none" stroke="rgb(0,0,0)" paint-order="fill stroke markers" d=" M 100 210 C 94.477153 210 90 205.522847 90 200" stroke-opacity="1" stroke-linecap="round" stroke-miterlimit="10" stroke-width="0.2" stroke-dasharray=""/><path fill="none" stroke="rgb(0,0,0)" paint-order="fill stroke markers" d=" M 89.393398 210.606602 C 86.580352 207.793556 85 203.9782475 85 200" stroke-opacity="1" stroke-linecap="round" stroke-miterlimit="10" stroke-width="0.3" stroke-dasharray=""/><path fill="none" stroke="rgb(0,0,0)" paint-order="fill stroke markers" d=" M 82.32233 182.32233 C 92.0854375 172.5592225 107.9145625 172.5592225 117.67767 182.32233 C 127.4407775 192.0854375 127.4407775 207.9145625 117.67767 217.67767 C 107.9145625 227.4407775 92.0854375 227.4407775 82.32233 217.67767 C 77.63392 212.98926 75 206.6304125 75 200" stroke-opacity="1" stroke-linecap="round" stroke-miterlimit="10" stroke-width="0.5" stroke-dasharray=""/><path fill="none" stroke="rgb(0,0,0)" paint-order="fill stroke markers" d=" M 100 170 C 116.568541 170 130 183.431459 130 200 C 130 216.568541 116.568541 230 100 230 C 83.431459 230 70 216.568541 70 200" stroke-opacity="1" stroke-linecap="round" stroke-miterlimit="10" stroke-width="0.6" stroke-dasharray=""/><path fill="none" stroke="rgb(0,0,0)" paint-order="fill stroke markers" d=" M 124.748738 175.251262 C 138.4170885 188.9196125 138.4170885 211.0803875 124.748738 224.748738 C 111.0803875 238.4170885 88.9196125 238.4170885 75.251262 224.748738 C 68.687488 218.184964 65 209.2825775 65 200" stroke-opacity="1" stroke-linecap="round" stroke-miterlimit="10" stroke-width="0.7" stroke-dasharray=""/><path fill="none" stroke="rgb(0,0,0)" paint-order="fill stroke markers" d=" M 140 200 C 140 222.091388 122.091388 240 100 240 C 77.908612 240 60 222.091388 60 200" stroke-opacity="1" stroke-linecap="round" stroke-miterlimit="10" stroke-width="0.8" stroke-dasharray=""/><path fill="none" stroke="rgb(0,0,0)" paint-order="fill stroke markers" d=" M 131.819806 231.819806 C 114.2462125 249.3933995 85.7537875 249.3933995 68.180194 231.819806 C 59.741056 223.38066800000001 55 211.9347425 55 200" stroke-opacity="1" stroke-linecap="round" stroke-miterlimit="10" stroke-width="0.9" stroke-dasharray=""/><path fill="none" stroke="rgb(0,0,0)" paint-order="fill stroke markers" d=" M 100 250 C 72.385765 250 50 227.614235 50 200" stroke-opacity="1" stroke-linecap="round" stroke-miterlimit="10" stroke-dasharray=""/><path fill="none" stroke="rgb(0,0,0)" paint-order="fill stroke markers" d=" M 61.109125999999996 238.890874 C 50.794624 228.576372 45 214.5869075 45 200" stroke-opacity="1" stroke-linecap="round" stroke-miterlimit="10" stroke-width="1.1" stroke-dasharray=""/><path fill="none" stroke="rgb(0,0,0)" paint-order="fill stroke markers" d=" M 40 200 C 40 166.862915012 66.862915012 140 100 140 C 133.137084988 140 160 166.862915012 160 200 C 160 233.137084988 133.137084988 260 100 260 C 66.862915012 260 40 233.137084988 40 200" stroke-opacity="1" stroke-linecap="round" stroke-miterlimit="10" stroke-width="1.2" stroke-dasharray=""/><path fill="none" stroke="rgb(0,0,0)" paint-order="fill stroke markers" d=" M 54.038058 154.038058 C 79.4221375 128.6539785 120.5778625 128.6539785 145.961942 154.038058 C 171.3460215 179.4221375 171.3460215 220.5778625 145.961942 245.961942 C 120.5778625 271.3460215 79.4221375 271.3460215 54.038058 245.961942 C 41.848192000000004 233.772076 35 217.2390725 35 200" stroke-opacity="1" stroke-linecap="round" stroke-miterlimit="10" stroke-width="1.3" stroke-dasharray=""/><path fill="none" stroke="rgb(0,0,0)" paint-order="fill stroke markers" d=" M 100 130 C 138.659929 130 170 161.340071 170 200 C 170 238.659929 138.659929 270 100 270 C 61.340071 270 30 238.659929 30 200" stroke-opacity="1" stroke-linecap="round" stroke-miterlimit="10" stroke-width="1.4" stroke-dasharray=""/><path fill="none" stroke="rgb(0,0,0)" paint-order="fill stroke markers" d=" M 153.03301 146.96699 C 182.32233250000002 176.2563125 182.32233250000002 223.7436875 153.03301 253.03301 C 123.7436875 282.3223325 76.2563125 282.3223325 46.966989999999996 253.03301 C 32.901759999999996 238.96778 25 219.8912375 25 200" stroke-opacity="1" stroke-linecap="round" stroke-miterlimit="10" stroke-width="1.5" stroke-dasharray=""/><path fill="none" stroke="rgb(0,0,0)" paint-order="fill stroke markers" d=" M 180 200 C 180 244.182776 144.182776 280 100 280 C 55.817224 280 20 244.182776 20 200" stroke-opacity="1" stroke-linecap="round" stroke-miterlimit="10" stroke-width="1.6" stroke-dasharray=""/><path fill="none" stroke="rgb(0,0,0)" paint-order="fill stroke markers" d=" M 160.10407800000002 260.104078 C 126.9095125 293.2986435 73.0904875 293.2986435 39.895922 260.104078 C 23.95532800000001 244.16348399999998 15 222.5434025 15 200" stroke-opacity="1" stroke-linecap="round" stroke-miterlimit="10" stroke-width="1.7" stroke-dasharray=""/><path fill="none" stroke="rgb(0,0,0)" paint-order="fill stroke markers" d=" M 100 290 C 50.294377000000004 290 10 249.705623 10 200" stroke-opacity="1" stroke-linecap="round" stroke-miterlimit="10" stroke-width="1.8" stroke-dasharray=""/><path fill="none" stroke="rgb(0,0,0)" paint-order="fill stroke markers" d=" M 32.824854 267.175146 C 15.008896000000007 249.359188 5 225.1955675 5 200" stroke-opacity="1" stroke-linecap="round" stroke-miterlimit="10" stroke-width="1.9" stroke-dasharray=""/></g></svg>